<?xml version="1.0" encoding="UTF-8" standalone="no"?>
<!-- Created with Inkscape (http://www.inkscape.org/) -->

<svg
   width="162.95197mm"
   height="156.89091mm"
   viewBox="0 0 162.95197 156.89091"
   version="1.1"
   id="svg1"
   xml:space="preserve"
   inkscape:version="1.3 (0e150ed6c4, 2023-07-21)"
   sodipodi:docname="island-chan.svg"
   xmlns:inkscape="http://www.inkscape.org/namespaces/inkscape"
   xmlns:sodipodi="http://sodipodi.sourceforge.net/DTD/sodipodi-0.dtd"
   xmlns="http://www.w3.org/2000/svg"
   xmlns:svg="http://www.w3.org/2000/svg"><sodipodi:namedview
     id="namedview1"
     pagecolor="#ffffff"
     bordercolor="#000000"
     borderopacity="0.25"
     inkscape:showpageshadow="2"
     inkscape:pageopacity="0.0"
     inkscape:pagecheckerboard="0"
     inkscape:deskcolor="#d1d1d1"
     inkscape:document-units="mm"
     inkscape:zoom="1.1414881"
     inkscape:cx="315.81582"
     inkscape:cy="362.68447"
     inkscape:window-width="1902"
     inkscape:window-height="1014"
     inkscape:window-x="9"
     inkscape:window-y="33"
     inkscape:window-maximized="1"
     inkscape:current-layer="layer1" /><defs
     id="defs1" /><g
     inkscape:label="Layer 1"
     inkscape:groupmode="layer"
     id="layer1"
     transform="translate(-21.424669,-52.465466)"><path
       style="fill:none;stroke:#110000;stroke-width:4"
       d="m 123.16062,187.88345 c -1.87443,-0.86224 -3.28961,-1.84267 -3.80576,-3.90725 -0.1239,-0.49563 -0.10026,-0.96458 -0.38238,-1.43508 -0.62283,-1.0387 -1.33375,-1.84514 -1.77702,-3.02223 -0.15622,-0.41485 -0.0765,-0.96364 -0.0765,-1.39141 0,-0.92658 -0.0546,-1.83653 0.15735,-2.74788 0.41606,-1.78879 1.24476,-3.72445 0.46338,-5.54362 -1.1681,-2.7195 -4.59005,-1.45971 -6.38739,-3.00029 -0.8919,-0.76449 -1.3241,-3.10103 -1.62732,-4.22446 -0.2415,-0.8947 -0.85128,-1.64956 -1.15258,-2.49138 -0.48209,-1.34694 0.6951,-5.31238 -0.13684,-6.11919 -1.28741,-1.24853 -6.51478,-2.76634 -8.28547,-3.55965 -1.390231,-0.62285 -2.364183,-2.21506 -2.731076,-3.65736 -0.102269,-0.40203 -0.083,-0.65215 -0.312343,-0.99616 -0.176281,-0.26443 -0.658984,-1.28234 -0.939374,-1.25281 -2.102739,0.22147 -3.918833,0.70414 -5.498459,-1.07314 -0.87775,-0.98758 -1.277046,-2.39459 -2.375009,-3.11215 -1.023929,-0.66917 -2.458082,-0.86311 -3.570589,-1.23818 -1.324483,-0.44653 -2.83541,-1.33303 -3.936264,-2.246 -0.792774,-0.65746 -0.817103,-1.13789 -0.817103,-2.12013 0,-0.49285 -0.18321,-1.04859 -0.07867,-1.54209 0.175643,-0.82918 0.673396,-1.55564 0.85158,-2.36856 0.390599,-1.78204 -0.567024,-4.54637 -2.037951,-5.59962 -0.906954,-0.64942 -5.085175,-0.79933 -6.370267,-0.47097 -1.611939,0.41187 -2.373468,1.35765 -4.305199,1.55082 -2.35689,0.2357 -5.071409,-2.15684 -6.899783,-3.45896 -0.958519,-0.68263 -2.167065,-0.97687 -3.109616,-1.68368 -1.01481,-0.76099 -0.415391,-2.5299 -0.534398,-3.59069 -0.05763,-0.51367 0.03888,-1.28366 -0.347482,-1.6963 -0.04249,-0.0454 -0.220155,0.0395 -0.269846,0 -0.370573,-0.29451 -1.434764,-0.92982 -1.067689,-1.55527 0.477591,-0.81376 1.483296,-0.81246 2.278113,-1.09633 0.687527,-0.24554 1.295376,-0.55261 2.035246,-0.62682 0.75129,-0.0754 1.592448,0.15355 2.330741,0 0.973399,-0.20244 2.765033,-1.70427 3.614362,-2.34126 0.178548,-0.13392 0.469884,-0.14318 0.624612,-0.23602 0.797978,-0.47878 1.268312,-1.44246 2.086856,-1.86851 0.222959,-0.11605 1.325338,-1.17199 0.878684,-1.52733 -1.065088,-0.84736 -2.156865,-1.68497 -3.292919,-2.44234 -0.931553,-0.62103 -1.923542,-1.10744 -2.957153,-1.48535 -0.374322,-0.13686 -0.782217,-0.0883 -1.161783,-0.2319 -0.612841,-0.23184 -1.184045,-0.52516 -1.793697,-0.70806 -0.915782,-0.27473 -2.024219,0.0742 -2.944038,-0.15734 -0.855006,-0.21526 -0.129228,-0.23245 -0.776896,-0.31469 -0.671261,-0.0852 -1.339162,-0.0527 -2.001745,-0.23376 -1.554146,-0.42475 -2.58732,-1.192938 -3.931486,-2.089039 -1.677802,-1.118524 -3.385494,-1.944119 -4.641406,-3.618667 -1.418099,-1.8908 -1.868404,-4.307525 -1.103059,-6.494317 0.141589,-0.404556 0.326494,-0.90756 0.685476,-1.198864 0.196849,-0.159739 0.671348,-0.437996 0.932132,-0.543692 0.665423,-0.269698 2.007145,0.440195 2.241415,-0.586544 0.09057,-0.396941 0.09537,-0.668547 -0.1607,-1.048571 C 48.46894,85.073168 48.10581,84.769567 47.727722,84.46714 46.912605,83.815135 46.065477,83.355464 45.182835,82.787517 44.470662,82.329259 44.064414,81.302715 43.372132,80.749114 41.351673,79.133399 39.9761,78.58256 40.337044,75.685053 c 0.07686,-0.616967 0.659805,-1.495603 1.180083,-1.888141 1.643737,-1.240162 3.974115,-0.03951 5.310492,-1.077424 1.462259,-1.135687 2.999506,-2.118807 4.468682,-3.294142 0.840841,-0.672668 1.517497,-1.596607 2.335694,-2.256422 0.473244,-0.381636 0.66811,-1.142166 1.22092,-1.527323 0.256249,-0.178537 2.673122,0 3.107266,0 0.655712,0 1.275514,-0.216605 1.917727,-0.152189 1.029343,0.103248 3.58081,0.734716 4.238776,1.701044 0.570709,0.838179 0.64481,1.907858 1.081682,2.781595 0.454811,0.909618 1.035646,1.61154 1.730799,2.360174 0.936397,1.008439 2.109446,2.034988 3.225567,2.83221 0.788535,0.563234 1.328788,1.505813 2.124149,2.045483 0.541192,0.367212 1.012171,0.710492 1.412261,1.269699 0.119639,0.167222 0.169741,0.600963 0.230783,0.7529 0.126751,0.315492 0.336137,0.6046 0.467892,0.91063 1.02336,2.377017 0.957823,6.800638 2.730103,8.822433 1.041204,1.187797 2.264434,2.070611 3.461583,3.068228 1.342255,1.118536 2.64038,2.283576 4.000423,3.375781 1.436159,1.153332 2.704341,2.563027 4.090628,3.776028 0.47928,0.41937 3.542625,2.230803 3.666366,2.588103 0.115228,0.33271 -0.185711,0.97989 0,1.27027 0.224763,0.35144 0.397211,0.67012 0.610012,1.04694 0.393716,0.69715 2.03625,1.56635 2.218399,2.15549 0.085,0.27491 -0.03806,0.66726 0,0.95166 0.170503,1.27392 -0.602162,2.37817 -1.119539,3.43126 -0.103968,0.21162 -0.354058,0.32664 -0.460126,0.53721 -0.02429,0.0482 -0.38417,2.16473 -0.265967,2.38631 0.202046,0.37877 0.406664,0.69059 0.54461,1.09672 0.304461,0.89634 -0.377791,2.1889 0.152593,3.02557 1.181976,1.86455 3.474691,3.28977 5.500455,3.9684 1.261423,0.42257 3.639443,0.35077 3.883573,-1.22696 0.037,-0.23876 0.12146,-0.25493 0.007,-0.49121 -0.85794,-1.76814 -6.426981,-1.6348 -7.705575,-4.61815 -0.345025,-0.80505 0.06505,-4.29274 0.504365,-5.05158 0.131712,-0.22751 0.412033,-0.33074 0.522512,-0.58513 0.277262,-0.63843 -0.03505,-3.45527 0.157345,-4.36462 0.191804,-0.90655 0.778693,-2.01983 1.285658,-2.80788 0.284554,-0.44232 0.833498,-0.76116 1.010153,-1.22772 0.178877,-0.47243 0.903472,-0.87021 1.151412,-1.365932 0.32101,-0.641813 0.23558,-1.557329 0.61079,-2.1365 0.0859,-0.132654 0.92299,0 1.14992,0 0.72352,0 1.31116,-0.247589 2.04331,-0.157345 1.83597,0.226301 3.21762,1.795897 4.88117,2.420587 3.05264,1.1463 3.02902,2.02649 4.83013,4.68075 0.89084,1.31282 1.71777,2.6413 2.51751,4.0123 0.41777,0.71617 0.73606,1.52087 1.33365,2.11846 0.97904,0.97904 3.14585,2.11279 4.5066,2.41821 1.00102,0.22468 2.18602,0.16776 3.21453,0.31469 0.54236,0.0775 0.92526,-0.0683 1.45347,0.1543 1.03209,0.43506 1.43299,1.33326 2.34559,1.89051 0.15569,0.0951 0.46985,-0.0601 0.64591,0 0.53929,0.18414 0.97487,0.24094 1.49856,-0.0655 0.58027,-0.33952 0.73983,-0.7664 0.73983,-1.38367 0,-0.27414 0.14359,-0.56398 0.0764,-0.84694 -0.31222,-1.31553 -3.31671,-2.83149 -4.30782,-4.21905 -0.85629,-1.1988 -1.55396,-2.49669 -2.32985,-3.75705 -0.5625,-0.91371 -1.77103,-2.11775 -2.02604,-3.16817 -0.16433,-0.6769 0.0631,-1.51775 0,-2.211913 -0.33516,-3.686697 -0.4264,-7.692203 0.94942,-11.19428 0.58383,-1.486131 1.82744,-3.646705 3.4616,-4.169641 1.34646,-0.430871 3.54584,-0.733853 4.95636,-0.236016 1.0275,0.362646 1.98991,0.773904 3.06822,1.022744 0.8787,0.202777 1.80367,0.04869 2.65,0.236011 0.96575,0.213749 2.42234,0.681649 3.45024,0.390089 0.93166,-0.264258 1.54368,-1.404766 2.30614,-1.917933 0.41073,-0.276431 1.02792,-0.379434 1.38642,-0.618217 1.09696,-0.730674 2.39248,-1.193517 3.76163,-0.696638 1.19176,0.432504 2.22346,1.83384 2.91089,2.832209 1.76218,2.559277 2.20667,5.131718 3.0817,8.048503 0.55474,1.849122 1.63468,3.420673 2.49355,5.132464 0.387,0.771321 0.48812,1.662298 0.69109,2.471338 0.46747,1.86339 1.32646,3.77679 2.02901,5.52345 0.0727,0.18063 -0.021,0.56464 0,0.75257 0.22658,2.02886 -0.27232,4.51003 0.0787,6.41828 0.32256,1.75368 1.02674,3.48669 1.41172,5.23728 0.15238,0.69288 0,1.54892 0,2.25812 0,2.07171 0,4.14342 0,6.21512 0,2.01825 0.61821,4.88286 0.23601,6.88119 -0.11736,0.61363 -0.4279,1.20667 -0.528,1.79956 -0.0141,0.0836 0.24931,4.961 0.29533,5.10121 0.24163,0.73609 0.57001,1.65023 0.98284,2.28281 0.28119,0.43086 0.79156,0.98006 0.96818,1.47852 0.13721,0.38725 0,1.16303 0,1.55872 0,0.94347 0.014,1.92222 -0.31469,2.82608 -0.89608,2.46421 -2.99589,3.89399 -2.58476,6.72711 0.21269,1.46557 1.43805,2.57103 2.19084,3.75442 0.76958,1.20979 1.30717,2.58176 1.87264,3.87754 0.10798,0.24744 -0.0867,0.60894 0,0.86575 0.59223,1.75391 0.39627,3.85321 1.08968,5.61829 0.4691,1.19411 0.88349,2.182 1.25876,3.38291 0.46156,1.47702 1.59857,2.63858 1.86081,4.19457 0.4371,2.59349 -0.60372,4.98719 -1.33006,7.40373 -0.34455,1.14633 -0.32089,2.35386 -0.69214,3.48135 -0.80964,2.45885 -2.35752,4.36348 -4.49737,5.85753 -1.68828,1.17876 -3.59378,1.79858 -5.47102,2.58228 -0.50504,0.21084 -1.05261,0.20798 -1.5624,0.39336 -1.10825,0.403 -2.15109,1.08143 -3.27501,1.40804 -1.85371,0.53867 -4.39313,0.30272 -6.2858,-0.0787 -0.62821,-0.12659 -1.24193,-0.56963 -1.85197,-0.77429 -0.72961,-0.24477 -1.51659,-0.36173 -2.2614,-0.54845 -1.75784,-0.44067 -3.574,-1.14503 -5.20696,-1.87194 -0.8546,-0.38043 -1.67125,-1.00264 -2.49032,-1.39305 -0.46328,-0.22082 -0.85011,-0.77645 -1.32629,-0.93642 -0.92431,-0.31052 -1.95399,-0.89459 -2.96422,-1.02035 -0.54863,-0.0683 -1.07887,0.0779 -1.6177,-0.0764 -1.37332,-0.39309 -4.24905,-1.42922 -5.11365,-2.6418 -0.10921,-0.15317 0.0626,-0.53187 0,-0.71481 -0.13831,-0.40432 -0.28446,-0.80593 -0.42669,-1.20889 z"
       id="path1" /></g></svg>
