<?xml version="1.0" encoding="UTF-8" standalone="no"?>
<!-- Created with Inkscape (http://www.inkscape.org/) -->

<svg
   width="133.76053mm"
   height="172.85739mm"
   viewBox="0 0 133.76053 172.85739"
   version="1.1"
   id="svg1"
   inkscape:version="1.3 (0e150ed6c4, 2023-07-21)"
   sodipodi:docname="island-hugle.svg"
   xmlns:inkscape="http://www.inkscape.org/namespaces/inkscape"
   xmlns:sodipodi="http://sodipodi.sourceforge.net/DTD/sodipodi-0.dtd"
   xmlns="http://www.w3.org/2000/svg"
   xmlns:svg="http://www.w3.org/2000/svg">
  <sodipodi:namedview
     id="namedview1"
     pagecolor="#ffffff"
     bordercolor="#000000"
     borderopacity="0.25"
     inkscape:showpageshadow="2"
     inkscape:pageopacity="0.0"
     inkscape:pagecheckerboard="0"
     inkscape:deskcolor="#d1d1d1"
     inkscape:document-units="mm"
     inkscape:zoom="1.0759242"
     inkscape:cx="110.13787"
     inkscape:cy="338.31379"
     inkscape:window-width="1902"
     inkscape:window-height="1014"
     inkscape:window-x="9"
     inkscape:window-y="33"
     inkscape:window-maximized="1"
     inkscape:current-layer="g13" />
  <defs
     id="defs1">
    <marker
       style="overflow:visible"
       id="ArrowTriangleStylized"
       refX="0"
       refY="0"
       orient="auto-start-reverse"
       inkscape:stockid="Stylized triangle arrow"
       markerWidth="1"
       markerHeight="1"
       viewBox="0 0 1 1"
       inkscape:isstock="true"
       inkscape:collect="always"
       preserveAspectRatio="xMidYMid">
      <path
         transform="scale(0.5)"
         style="fill:context-stroke;fill-rule:evenodd;stroke:context-stroke;stroke-width:1pt"
         d="m 6,0 c -3,1 -7,3 -9,5 0,0 0,-4 2,-5 -2,-1 -2,-5 -2,-5 2,2 6,4 9,5 z"
         id="path4" />
    </marker>
    <linearGradient
       id="swatch7"
       inkscape:swatch="solid">
      <stop
         style="stop-color:#000000;stop-opacity:1;"
         offset="0"
         id="stop7" />
    </linearGradient>
  </defs>
  <g
     inkscape:label="Layer 1"
     inkscape:groupmode="layer"
     id="layer1"
     transform="translate(-19.570551,-59.574387)">
    <g
       id="g13"
       style="stroke-width:2.1;stroke-dasharray:none;stroke:#080808;stroke-opacity:1">
      <path
         style="stroke-dasharray:none;stroke-width:4;stroke:#000000;stroke-opacity:0.97765785;fill:none"
         d="m 44.16404,99.576204 c 0.01715,-2.009019 -0.742648,-1.817739 1.155126,-1.817739 1.318089,0 5.096032,0.03351 5.114728,0 0.486888,-0.872789 -0.507131,-3.893666 0,-4.676471 1.756391,-2.71115 1.291767,-1.170187 3.030757,-1.847347 0.09685,-0.03771 0.414013,-0.968873 0.570691,-1.206019 1.692425,-2.561607 1.45829,-3.702599 5.101422,-3.365518 0.657113,0.06079 1.28175,0.456517 1.836447,0.699098 1.836382,0.803085 4.72284,1.121596 5.455726,3.325338 0.361308,1.086423 -0.55005,3.006167 0,4.000666 0.244197,0.441512 2.621313,0.374884 3.477166,1.462412 0.443114,0.563062 -0.103627,1.470702 0.117827,2.096021 0.211711,0.597817 0.347265,1.191187 0.59152,1.790665 0.99153,2.43353 1.873415,0.45063 2.289989,4.15183 0.255759,2.27239 -1.885177,3.08811 -2.650512,4.83384 -0.840439,1.91705 0.161968,3.49562 0.481199,5.35395 0.193324,1.1254 -0.280287,2.43052 0,3.53433 0.643608,2.53462 4.10543,4.44986 5.235533,6.58841 0.26026,0.49251 0.401725,2.13 0.235543,2.55128 -0.173871,0.44078 -0.41289,0.76339 -0.659534,1.14113 -0.285532,0.43732 -0.131613,1.62569 -0.332713,2.12633 -0.302705,0.75357 -0.999513,1.35806 -1.275585,2.07574 -0.639897,1.66346 1.280695,2.13056 1.693595,2.87919 0.197193,0.35754 0.209012,1.85068 0.120914,2.25863 -0.412067,1.90814 -2.083994,2.68709 -2.939131,4.25736 -0.101129,0.18571 0.04946,0.58199 0,0.79135 -0.4037,1.7087 0.09025,1.81191 -1.690854,3.35357 -1.153212,0.9982 -3.824864,1.32926 -4.563475,2.66293 -0.15187,0.27422 0.118395,0.79712 0,1.08746 -0.817869,2.00561 1.085008,3.93013 1.726775,5.80584 0.435201,1.27197 -0.235726,4.33558 -0.673146,5.57314 -0.109477,0.30973 -6.779316,-0.16257 -7.518889,-0.16257 -0.0024,0 -1.824869,-0.0537 -1.526716,0.33431 1.059378,1.37885 3.165488,2.53787 4.817737,2.97445 0.339578,0.0897 1.669242,-0.25494 1.970516,0 2.059302,1.74262 0.234752,4.32538 0.941089,5.45038 0.782678,1.24658 0.310239,0.4903 0.595369,1.44166 0.261084,0.87114 1.857701,3.31555 0.577845,4.11292 -2.849847,1.7755 -6.23894,2.29553 -9.062502,4.05485 -0.637992,0.39753 -1.942247,-0.25441 -2.665338,0 -4.474557,1.57435 -4.706367,4.51198 -10.399706,3.13214 -3.463755,-0.83947 -5.818087,-4.65667 -7.980277,-7.20403 -0.434043,-0.51137 -0.723244,-1.16011 -1.331921,-1.49764 -0.853459,-0.47328 -2.013232,1.19103 -2.633725,1.37022 -0.599667,0.17318 -1.458061,-0.0474 -2.062947,0 -1.33247,0.10435 -2.72447,0.26109 -4.032007,-0.1221 -2.194496,-0.64313 -4.759163,-3.03044 -5.117577,-5.38303 -0.196555,-1.29018 -0.28659,-4.0388 0.473045,-5.18944 1.179371,-1.78645 8.2034,-3.12355 10.637205,-4.76201 1.147355,-0.77241 2.749268,-1.59575 3.604426,-2.67739 1.219668,-1.54268 2.3322,-3.07703 3.930055,-4.31823 0.474639,-0.3687 4.802558,-2.90206 4.826652,-3.27143 0.0706,-1.08245 -2.868018,-3.43771 -3.90907,-3.98442 -0.05243,-0.0275 -0.390192,0.0512 -0.42136,0 -0.759384,-1.24752 0.568163,-1.88499 -0.396052,-3.18325 -0.617405,-0.8313 -2.286929,-1.66577 -2.629313,-2.651 -0.36476,-1.04962 3.974687,-3.21616 4.711457,-4.21187 0.549723,-0.74291 0.14636,-2.42723 -0.223302,-3.17382 -0.130601,-0.26376 -0.56917,-0.59992 -0.646054,-0.87159 -0.264408,-0.93436 0.101998,-2.00733 -0.117999,-2.93071 -0.461796,-1.93829 -5.182422,-3.72529 -4.567626,-5.3243 0.370015,-0.96238 3.738194,-1.34693 4.669644,-1.64087 3.353304,-1.0582 13.206462,-7.85279 12.274748,-12.42367 -0.09079,-0.44543 -0.367149,-0.80032 -0.586436,-1.15958 -0.271717,-0.44516 -0.204434,-1.01555 -0.677125,-1.35587 -2.185468,-1.57353 -5.999426,0.89972 -8.110607,-0.97225 -0.789403,-0.69995 -0.71776,-4.8797 -0.863247,-5.887276 z"
         id="path17" />
      <path
         style="fill:none;fill-opacity:0.0908229;stroke-width:4;stroke-dasharray:none;stroke:#080808;stroke-opacity:1"
         d="m 47.808126,74.225533 c 1.00859,-1.261155 2.005108,-2.573083 3.500517,-3.247114 0.718056,-0.323652 1.615504,-0.277757 2.278551,-0.51701 0.32838,-0.118491 1.020308,0.199119 1.29348,0 0.27989,-0.204016 0.675418,-0.470824 1.008578,-0.58545 0.293535,-0.100991 0.986517,0.0515 1.220573,-0.162986 0.650754,-0.596349 -0.524379,-2.543161 -1.071025,-2.852615 -0.329338,-0.186435 -1.298208,0 -1.684594,0 -1.580009,0 -3.501879,-0.676497 -5.036713,0.103076 -2.924388,1.485358 -2.837004,1.895726 -2.837004,4.873031 0,0.08139 -0.680558,1.2808 -0.326883,1.486761 0.542975,0.316199 1.103012,0.601539 1.65452,0.902307 z"
         id="path16" />
      <path
         style="fill:none;fill-opacity:0.0908229;stroke-width:4;stroke-dasharray:none;stroke:#080808;stroke-opacity:1"
         d="m 64.09094,62.77049 c -0.99838,0.750537 -2.149922,1.328973 -2.99514,2.251609 -0.331312,0.36166 0,0.985363 0,1.478045 0,2.916562 0.411162,2.460682 3.289957,2.460682 1.209867,0 -0.270955,-0.07281 0.967308,0.244208 2.173875,0.556542 7.281021,-0.260164 9.445137,-0.814035 0.995564,-0.254797 2.270211,-1.948935 3.385952,-2.410753 1.362002,-0.563746 2.242252,0.359633 3.406674,-0.816239 0.120486,-0.121672 0.584741,-0.384403 0.635269,-0.475202 0.772253,-1.387704 -2.132187,-2.365774 -2.775556,-2.467129 -3.089866,-0.486766 -6.813588,-0.595133 -9.955646,-0.595133 -0.675257,0 -3.036497,-0.38295 -3.650781,0 -0.592045,0.369084 -1.168783,0.762633 -1.753174,1.143947 z"
         id="path15" />
      <path
         style="fill:none;fill-opacity:0.0908229;stroke-width:4;stroke-dasharray:none;stroke:#080808;stroke-opacity:1"
         d="m 77.955068,71.469904 c 1.681455,-0.285005 3.361193,-0.58055 5.044368,-0.855016 1.259942,-0.20545 3.820277,-0.08191 4.961916,-0.350048 0.567655,-0.133329 0.760645,-0.786002 1.224509,-1.04356 0.490188,-0.272174 1.284603,-0.33395 1.882914,-0.439665 0.609129,-0.107629 2.111749,-0.212044 2.67432,-0.09423 0.846699,0.177314 7.623495,4.369591 8.374455,5.277375 1.09699,1.326072 -0.39527,3.97802 0.35157,5.486377 0.39086,0.78941 6.40327,7.296919 7.40729,7.81391 3.0843,1.588189 6.59323,2.576603 9.93613,3.51354 1.0238,0.286949 5.08223,1.223979 5.58808,2.403695 1.54778,3.609626 -2.4778,6.475463 -3.97524,9.096078 -0.22414,0.39228 -1.10113,1.25429 -0.61172,1.83049 1.40783,1.65743 5.90686,1.53987 8.07373,2.7976 1.79789,1.04356 2.70854,3.55088 4.3291,4.86009 2.51102,2.02853 5.37782,3.55297 7.85937,5.61671 2.86271,2.38069 5.43854,5.10408 8.32396,7.42896 3.98982,3.21474 2.21573,4.8355 -1.22122,8.30625 -1.57909,1.59462 -3.067,3.12817 -4.95744,4.2736 -0.77882,0.47189 -1.4718,1.04796 -2.29315,1.46267 -0.31928,0.1612 -0.56261,0.43517 -0.89645,0.56457 -0.0504,0.0196 -0.55013,-0.0506 -0.44991,0.10612 0.60563,0.94711 6.28074,3.48623 6.42836,3.83728 0.46292,1.10084 0,3.62189 0,4.92605 0,1.26784 0.94475,2.65706 0.17588,3.79041 -0.8137,1.19942 -0.97024,1.58934 -1.91268,2.65301 -1.35446,1.52871 -4.081,2.87253 -3.86923,5.22488 0.16998,1.8882 1.41701,3.98707 2.17645,5.61673 1.55688,3.34087 3.25303,7.01265 3.74052,10.69826 0.39078,2.95448 -0.96483,5.51649 -2.5392,7.90125 -0.60979,0.92369 -1.45076,1.62629 -1.67615,2.75293 -0.34391,1.71903 0.0422,3.50245 -0.12092,5.232 -0.11699,1.24055 -0.36272,2.41093 -0.36272,3.66308 0,0.91731 0.50475,4.09394 -0.0791,5.02099 -1.22277,1.94159 -4.75352,0.3823 -5.09403,3.30502 -0.18937,1.62539 -0.11246,6.339 -0.72231,7.88513 -0.62823,1.59267 -1.37639,3.27453 -1.90803,4.89857 -0.15667,0.47859 -0.83888,3.52404 -1.1453,3.92174 -1.17044,1.5191 -9.76271,-2.93656 -12.98268,-2.21398 -2.17912,0.48901 -5.61765,4.17107 -7.49662,5.61673 -0.97676,0.7515 -2.25405,1.64014 -3.49285,1.82601 -3.1041,0.46574 -5.99629,-0.47772 -8.945197,-1.074 -0.166938,-0.0337 -0.550207,0.0884 -0.693793,0 -0.0089,-0.006 -0.228429,-2.16411 -0.241832,-2.2408 -0.333582,-1.90889 -0.09015,-3.94911 0,-5.86091 0.134392,-2.84996 0.06049,-5.36298 0.843269,-8.14689 0.443863,-1.57859 0.582173,-2.96292 0.582173,-4.57969 0,-0.26371 -0.479636,-1.1641 -0.909977,-0.78741 -1.297055,1.13536 -1.39612,2.50779 -2.176446,3.88335 -0.44844,0.7905 -1.023839,2.43292 -1.664567,2.91054 -0.0119,0.009 -0.08372,5.50636 -0.359741,6.24971 -1.323318,3.56375 -4.386856,7.3662 -7.722015,9.39335 -0.809003,0.49173 -1.747206,0.85449 -2.516726,1.45376 -1.535887,1.19603 -4.177735,4.11683 -6.418056,3.15849 -2.26395,-0.96843 -2.26196,-3.0576 -2.26196,-5.22911 0,-5.39971 2.577535,-10.10639 4.585867,-14.97378 0.930661,-2.25554 3.998153,-7.73009 3.020081,-10.26355 -0.07264,-0.18814 -0.404293,0.0419 -0.599913,0 -0.212327,-0.0455 -0.398718,-0.17472 -0.60457,-0.2442 -3.0982,-1.04569 -5.367386,1.41772 -7.343706,3.41348 -0.234591,0.23689 -0.930348,0.5908 -1.055738,0.94767 -0.190757,0.54292 0,1.50417 0,2.05944 0,2.17498 -0.437599,4.62177 -2.148572,6.10273 -1.619685,1.40197 -5.418429,0.46865 -7.473576,0.46865 -2.913958,0 -4.339782,2.47998 -7.164389,2.0636 -1.404744,-0.20706 -2.893757,-2.42506 -3.246533,-3.64449 -0.205004,-0.70864 -0.137272,-1.53793 -0.475545,-2.22226 -0.652571,-1.32017 -1.489289,-2.85692 -1.794268,-4.32924 -1.328369,-6.41287 4.499075,-6.63648 8.905059,-8.10151 1.191482,-0.39618 2.242957,-1.13885 3.386278,-1.6512 3.226453,-1.44585 6.963944,-2.02294 9.914897,-4.15149 2.563547,-1.84912 3.804052,-5.05972 6.040227,-7.31788 0.652334,-0.65875 1.328318,-1.67333 2.05551,-2.19785 3.808455,-2.74704 8.637551,-2.09756 13.058651,-1.58731 0.07056,0.008 5.084418,1.04164 5.200758,0.84176 0.43057,-0.7397 -0.680262,-2.53767 -0.964915,-3.11255 -1.789596,-3.6144 -4.356611,-6.92502 -7.617533,-9.27978 -1.15108,-0.83121 -2.619324,-1.00129 -3.634107,-2.02605 -0.808948,-0.81691 -0.59799,-1.00525 -0.792341,-1.93583 -0.725095,-3.47183 3.571267,-5.00908 6.411272,-5.46191 2.77581,-0.4426 6.519114,-0.37138 5.287496,-0.98756 -1.581033,-0.791 -3.560399,-1.2842 -5.269428,-1.67868 -3.138981,-0.72455 -10.002851,-0.72546 -7.454509,-5.87226 1.362347,-2.75147 5.230481,-4.64383 8.101194,-5.00621 1.490048,-0.18809 9.953881,-0.11217 10.884931,-1.8897 0.34067,-0.65039 0.0854,-1.99115 0.0854,-2.73659 0,-0.75296 0.25983,-1.40894 0.10313,-2.16386 -0.55316,-2.66476 -2.98182,-3.87731 -4.5715,-5.78868 -0.69935,-0.84087 -0.2828,-1.69732 -1.422897,-2.55337 -0.943556,-0.70847 -3.223644,-0.4355 -4.136522,-1.95535 -0.09113,-0.15172 0.02298,-0.80325 0,-0.94244 -0.333568,-2.02073 -0.173949,-1.74755 1.328048,-2.9647 0.736873,-0.59713 1.345345,-1.22544 2.168033,-1.70943 0.215551,-0.1268 1.146898,-0.43502 1.045718,-0.87192 -0.928073,-4.00752 -8.365029,-2.38581 -9.702947,-6.31618 -1.518886,-4.46199 6.418459,-6.43769 5.586141,-10.08793 -1.131046,-4.96032 -9.458524,-3.95185 -10.258658,-6.108402 -1.040582,-2.804609 2.184358,-4.239655 1.636889,-5.740755 -0.941107,-2.580418 -4.434524,-7.0474 -6.291815,-9.129486 -2.154884,-2.415701 -6.278203,-5.170037 -6.278203,-8.798416 0,-1.312622 -0.272752,-3.17888 1.114358,-3.961496 0.618293,-0.348847 1.415286,0.06629 2.121151,0.124968 z"
         id="path14" />
    </g>
  </g>
</svg>
