<?xml version="1.0" encoding="UTF-8" standalone="no"?>
<!-- Created with Inkscape (http://www.inkscape.org/) -->

<svg
   width="169.25513mm"
   height="155.9093mm"
   viewBox="0 0 169.25513 155.9093"
   version="1.1"
   id="svg1"
   xml:space="preserve"
   inkscape:version="1.3 (0e150ed6c4, 2023-07-21)"
   sodipodi:docname="island-archive.svg"
   xmlns:inkscape="http://www.inkscape.org/namespaces/inkscape"
   xmlns:sodipodi="http://sodipodi.sourceforge.net/DTD/sodipodi-0.dtd"
   xmlns="http://www.w3.org/2000/svg"
   xmlns:svg="http://www.w3.org/2000/svg"><sodipodi:namedview
     id="namedview1"
     pagecolor="#ffffff"
     bordercolor="#000000"
     borderopacity="0.25"
     inkscape:showpageshadow="2"
     inkscape:pageopacity="0.0"
     inkscape:pagecheckerboard="0"
     inkscape:deskcolor="#d1d1d1"
     inkscape:document-units="mm"
     inkscape:zoom="1.1414881"
     inkscape:cx="306.17928"
     inkscape:cy="348.66768"
     inkscape:window-width="1902"
     inkscape:window-height="1014"
     inkscape:window-x="9"
     inkscape:window-y="33"
     inkscape:window-maximized="1"
     inkscape:current-layer="layer1" /><defs
     id="defs1" /><g
     inkscape:label="Layer 1"
     inkscape:groupmode="layer"
     id="layer1"
     transform="translate(-23.943611,-56.110771)"><g
       id="g3"><path
         style="fill:none;stroke:#110000;stroke-width:4"
         d="m 32.777044,120.09626 c -0.484288,-1.12606 -0.534818,-2.33844 -0.811152,-3.52822 -0.362645,-1.5614 -1.933634,-4.23104 -0.793482,-5.82402 1.436775,-2.00741 4.303902,-1.29858 6.503435,-1.29858 0.497115,0 1.058787,0.0833 1.527716,-0.11477 2.656029,-1.12184 3.909453,-3.59152 6.997916,-3.90037 0.321593,-0.0322 3.615553,-0.19683 3.921638,-0.0767 0.459669,0.18043 -0.573854,1.72289 -0.573854,1.92874 0,0.33789 0,-0.67577 0,-1.01365 0,-0.66701 -0.193614,-1.17735 -0.313431,-1.83203 -0.162728,-0.88913 -0.953414,-3.57726 -0.340071,-4.443803 0.365224,-0.515993 1.030879,-0.666129 1.418711,-1.053939 0.351856,-0.351835 0.730509,-0.02177 1.038535,-0.220146 1.773166,-1.141884 3.963365,-1.259499 5.751382,-2.455328 2.304527,-1.541272 3.358169,-4.433303 4.992725,-6.476498 0.50519,-0.631491 2.474822,-2.632331 3.13617,-3.139381 0.227562,-0.174472 0.731154,-0.570857 0.996346,-0.703662 0.165804,-0.08303 0.399815,0.02911 0.550709,-0.07867 0.419984,-0.299987 0.760439,-0.74803 1.239168,-1.013386 0.776941,-0.430655 1.706288,-0.681546 2.472312,-1.239015 1.14413,-0.832628 1.974927,-2.06345 3.116281,-2.882453 0.311116,-0.223249 0.791488,-0.572505 1.134152,-0.749052 0.296069,-0.15254 0.813951,0.105294 1.133758,0 0.495353,-0.163093 1.478304,-1.331104 1.939134,-1.695234 1.948747,-1.539825 2.496357,-4.580644 4.803405,-5.911077 2.506226,-1.445296 4.232899,3.049506 5.994148,4.284635 0.127072,0.08911 0.65736,0 0.814102,0 0.173866,0 0.374317,0.162101 0.542576,0.02986 0.971695,-0.763681 2.117466,-1.610236 2.838823,-2.607014 0.265949,-0.367491 0.03063,-1.001961 0.224898,-1.356104 0.191794,-0.349635 1.083816,-2.638933 1.222873,-2.68388 0.5701,-0.184274 1.046739,0.01818 1.486307,0.285675 0.234577,0.142752 1.386597,0.03185 1.639832,0 0.467559,-0.0588 0.934929,-0.218702 1.390616,-0.309198 0.215352,-0.04277 0.630129,0.10499 0.821925,0 0.705943,-0.386435 1.267743,-1.051253 1.978003,-1.44337 0.15207,-0.08395 0.61536,0 0.77713,0 1.75853,0 2.11901,0.597692 3.29935,2.009814 0.33923,0.405839 0.55175,1.032929 0.75411,1.485041 0.19721,0.440616 0.66013,0.960536 0.7628,1.431338 0.37797,1.733155 -0.39688,3.72813 0,5.456647 0.21471,0.935116 0.59475,1.536982 0.44489,2.565698 -0.16053,1.10196 -1.12272,1.940948 -1.29693,3.047126 -0.15561,0.988036 0.073,2.185951 0.46062,3.06455 0.34023,0.771117 1.04101,1.156938 0.58575,2.205059 -0.55959,1.288298 -2.93449,1.666658 -3.1833,1.965549 -0.16278,0.195559 -0.40944,0.554107 -0.5195,0.761426 -0.72752,1.370439 0.15219,3.211351 -0.22463,4.653198 -0.13015,0.498002 -0.69762,0.948209 -0.98415,1.344065 -0.0546,0.0754 0,0.391242 0,0.485608 0,0.750925 0.22804,0.85425 0.79824,1.242561 0.13558,0.0923 0,1.63591 0,1.7378 0,0.60732 -0.20518,3.06015 0,3.43858 0.65318,1.20473 0.82476,2.91424 0.0601,4.17427 -0.28606,0.47139 -1.83741,2.13499 -2.41039,2.40161 -0.32444,0.15097 -0.64317,0.19205 -0.949508,0.42008 -0.373353,0.27792 -0.619448,0.71162 -1.023649,0.95508 -0.433062,0.26085 -1.013299,0.4573 -1.395328,0.68995 -0.08604,0.0524 -0.340156,0.3266 -0.522187,0.37204 -0.410527,0.10248 -2.76652,0.18439 -3.188628,0.0732 -0.161325,-0.0425 -0.204079,-0.18009 -0.331018,-0.25925 -0.454533,-0.28345 -1.424895,0.27921 -1.594533,0.70318 -0.158757,0.39677 -0.214786,0.37478 -0.367204,0.66267 -0.453184,0.85598 0.484801,6.35607 -0.232624,7.4236 -0.562438,0.83692 -1.56078,1.85755 -2.516876,2.21708 -0.942967,0.35459 -2.344507,-0.39925 -3.266167,0 -1.412891,0.61203 -2.792148,1.36307 -3.831932,-0.57003 -0.205321,-0.38172 0,-2.47929 0,-3.08953 0,-1.47942 0,-2.95883 0,-4.43824 0,-0.47422 -0.136297,-0.92853 -0.07573,-1.41397 0.111244,-0.89155 0.754811,-1.82586 1.194268,-2.57126 0.195157,-0.33103 1.503376,-2.23223 1.047687,-2.72693 -0.603544,-0.6552 -1.895872,0.56831 -2.085401,1.01512 -0.301453,0.71068 -0.50959,3.0908 -0.948018,3.5409 -0.907071,0.93121 -3.298206,-0.17664 -4.160105,-0.55348 -0.338018,-0.14779 -0.715367,-0.10796 -1.047983,-0.22541 -0.282202,-0.0997 -0.691208,-0.21143 -0.92465,-0.36706 -0.103557,-0.069 -0.278328,-0.32514 -0.311888,-0.20529 -0.208849,0.74585 0.718368,1.09415 0.718368,1.63863 0,0.49665 0.369689,1.0071 0.461227,1.51667 0.150815,0.83954 0.187269,6.45896 0,6.92111 -0.640985,1.58183 -1.972173,2.52029 -2.839773,3.95939 -0.634275,1.05208 -1.20709,2.36488 -1.595408,3.52924 -0.07651,0.2294 -0.0079,0.51658 -0.151377,0.74682 -0.140459,0.22545 -0.210132,0.0887 -0.303855,0.3771 -0.04623,0.14228 0.06821,0.31567 0,0.44881 -1.095142,2.13782 -4.86216,2.17439 -6.243817,4.09152 -0.448382,0.62215 -0.07933,1.36259 -0.315738,2.0656 -0.08379,0.24916 -0.36449,0.40003 -0.451623,0.66047 -0.04286,0.12811 -0.08192,0.71175 -0.137255,0.78071 -0.299543,0.37331 -0.820637,0.68146 -1.02839,1.09696 -0.116822,0.23365 0.04626,0.31945 -0.147826,0.61528 -0.36544,0.55702 -2.312098,1.76676 -2.969585,1.99448 -0.302141,0.10464 -1.005623,0.0483 -1.337323,0 -0.537597,-0.0783 -1.406602,-0.44396 -1.755233,-0.87709 -0.171746,-0.21338 0.07291,-0.91886 0,-1.20052 -0.11539,-0.44579 -0.304485,-0.73398 -0.228759,-1.21951 0.344234,-2.20716 1.532372,-4.39925 2.405748,-6.43477 0.178795,-0.4167 0.519644,-0.8199 0.660945,-1.2469 0.143542,-0.43379 -0.0894,-0.38718 0.219776,-0.86673 0.740746,-1.14895 1.342372,-2.30255 2.151949,-3.39228 0.491681,-0.66183 0.968031,-1.28385 0.934707,-1.28929 -1.072558,-0.17483 -2.78194,1.84212 -4.02159,1.54921 -0.490773,-0.11596 -0.684501,-0.78525 -1.111292,-0.95137 -0.397828,-0.15484 -2.307373,-1.35321 -2.610316,-1.14901 -0.08452,0.057 0.761053,2.28262 0.874085,2.54458 0.427559,0.9909 0.75415,2.40849 0.381297,3.49124 -0.09874,0.28671 -0.37151,0.53275 -0.459235,0.8358 -0.08669,0.29948 0.05327,0.70937 -0.0641,0.99633 -0.419584,1.02584 -0.779909,1.74265 -1.851855,2.29182 -0.183399,0.094 -0.700339,-0.03 -0.872673,0 -1.772097,0.3085 -2.846931,-0.95058 -3.391782,-2.44669 -0.254126,-0.6978 0.02555,-1.51734 -0.646443,-2.05506 -0.156883,-0.12554 -1.301293,0 -1.456626,0 -0.67889,0 -2.699763,-0.32489 -3.100095,-0.15529 -0.960122,0.40679 -1.842092,1.22325 -2.963001,0.98433 -1.780662,-0.37955 0.01951,-4.82479 -0.853332,-6.31022 -0.913644,-1.55488 -2.984848,-1.19871 -4.447576,-1.62002 -0.51377,-0.14798 -0.882021,-0.51324 -1.371566,-0.6824 -0.425407,-0.147 -1.143683,-0.54299 -1.427681,-0.93936 -0.04548,-0.0635 -0.09078,-3.15923 -0.241217,-3.90137 z"
         id="path1" /><path
         style="fill:none;stroke:#110000;stroke-width:4"
         d="m 70.017149,157.11625 c -3.109653,0.3612 -5.536726,-1.6282 -5.70812,-4.71325 -0.03616,-0.65085 -0.214665,-1.32282 0,-1.96682 0.235698,-0.70709 0.57473,-1.17772 0.944073,-1.80947 0.832791,-1.42448 2.408547,-2.3805 3.210697,-3.79205 0.359947,-0.6334 -0.18529,-2.31153 0.310362,-3.17717 0.527462,-0.9212 1.135856,-1.712 2.097595,-2.20326 0.228105,-0.11652 0.554866,-0.0512 0.757513,-0.15078 0.291907,-0.14349 0.52374,-0.36798 0.842211,-0.45768 0.435269,-0.12258 0.801695,-0.73278 1.257829,-0.89788 0.206819,-0.0749 0.500552,0.0186 0.708877,-0.0633 0.267237,-0.10511 0.559099,-0.10894 0.79933,-0.20838 0.403574,-0.16704 1.301896,-1.18623 1.568574,-1.59924 0.04484,-0.0694 -0.03479,-0.2645 0,-0.32976 0.169961,-0.31886 0.751269,-1.45166 1.106977,-1.664 0.797359,-0.47599 2.367979,0.15753 3.278505,-0.0537 0.773081,-0.17939 0.850638,-0.39833 1.420326,-0.70602 0.102595,-0.0554 0.519472,0 0.612928,0 0.262226,0 0.559078,-0.19088 0.771972,-0.14215 0.873591,0.19998 2.902466,2.23541 3.286837,3.00413 0.230812,0.46161 0.15974,1.68965 0.06655,2.109 -0.364588,1.64066 -0.934482,3.25258 -1.300935,4.90925 -0.302879,1.36925 1.125979,2.84998 0.720617,3.87025 -0.720601,1.81372 -2.289416,2.67008 -3.304522,4.15651 -0.278019,0.40711 -0.365889,1.00827 -0.654351,1.39093 -1.154481,1.53147 -2.450378,2.11584 -4.275164,2.73473 -1.03187,0.34996 -3.627268,-0.19067 -4.857107,0.0732 -0.921716,0.19776 -0.234,1.00753 -0.549847,1.57363 -0.08797,0.15768 -1.857573,0.61572 -2.0794,0.53347 -0.348342,-0.12916 -0.688216,-0.2801 -1.032325,-0.42014 z"
         id="path2" /><path
         style="fill:none;stroke:#110000;stroke-width:4"
         d="m 91.572097,146.26015 c 0.488884,-0.33713 1.250101,0.43748 1.807321,0.31432 1.222174,-0.27012 0.872022,-2.72984 0.872022,-3.52829 0,-1.11401 0.247264,-2.13068 -0.314862,-3.17404 -0.365527,-0.67846 -0.870953,-1.36719 -1.335355,-1.97488 -0.282099,-0.36914 -0.774552,-0.6267 -0.987449,-1.05065 -0.182745,-0.3639 -0.112334,-0.86727 -0.153127,-1.2686 -0.05797,-0.57029 -0.145863,-1.1218 -0.0021,-1.69488 0.43884,-1.74931 2.93565,-4.12945 4.61341,-4.54889 0.555601,-0.1389 3.319946,0.15115 3.614248,-0.0787 0.06553,-0.0512 0,-0.63646 0,-0.72462 0,-0.6471 0.279717,-1.28055 0.157345,-1.9859 -0.09197,-0.53014 -0.348388,-1.06134 -0.199152,-1.65048 0.150664,-0.59477 0.634612,-0.89067 0.962392,-1.3767 0.17314,-0.25671 0.64131,-0.76665 0.97496,-0.76665 1.0627,0 2.12539,0 3.18809,0 0.54533,0 1.53443,-0.2675 2.01687,-0.0642 1.14934,0.48432 2.14674,1.43179 3.29379,1.82738 1.24194,0.42832 2.91627,0.69159 3.66935,1.95039 0.14069,0.23518 0,0.87073 0,1.14377 0,0.75172 0.0838,1.56546 0,2.31241 -0.0856,0.76325 -1.40295,5.066 -0.16483,5.5057 0.32821,0.11657 0.97885,0 1.32749,0 0.61813,0 1.28717,0.0763 1.89746,0 2.06672,-0.25833 5.22879,-2.08435 6.39804,-3.81735 0.249,-0.36904 1.19157,-1.31389 1.79509,-0.807 1.02825,0.86363 0.11377,2.09587 0.86789,3.01249 0.52634,0.63976 1.29248,1.37911 1.9541,1.87757 0.70532,0.53139 1.67275,0.95835 2.16022,1.71803 0.51124,0.7967 0.63431,1.69669 1.1357,2.44567 0.46883,0.70034 1.39515,1.14649 1.60614,1.98071 0.17977,0.71071 0.15862,2.94326 0.002,3.64751 -0.23319,1.05107 -0.92749,2.13427 -0.62578,3.28367 0.31793,1.21117 1.75963,1.43967 2.2824,2.36354 0.38797,0.68565 -0.25173,3.53423 0.003,4.45819 0.16907,0.61292 0.80876,0.61561 1.09206,1.0472 0.32121,0.48933 -0.18682,1.37446 0.0734,1.86153 0.15918,0.29799 0.37607,0.56278 0.55131,0.8516 0.11071,0.18246 0.34395,0.53417 0.54793,0.61801 0.39739,0.16334 5.52823,0.0787 6.19549,0.0787 1.08034,0 3.56468,0.30561 4.57685,-0.0725 0.7728,-0.28872 -1.55306,-1.79507 -1.72111,-1.88179 -1.4453,-0.74588 -3.42553,-1.33642 -3.13236,-3.36328 0.31126,-2.15189 2.34159,-3.93574 3.96228,-5.14886 0.85644,-0.64106 3.52728,-0.71425 3.20523,-2.12625 -0.12905,-0.56579 -1.34329,-1.3013 -1.73481,-1.62756 -2.07224,-1.72687 -4.09792,-3.42072 -5.4791,-5.78847 -0.13528,-0.23189 -0.43965,-0.57436 -0.47204,-0.86337 -0.13157,-1.17402 0.25863,-2.5537 -0.15508,-3.67603 -0.3739,-1.01433 -0.90831,-1.92853 -1.3125,-2.92748 -0.0934,-0.23088 0.0238,-0.79908 0,-1.05975 -0.0595,-0.6509 -0.17187,-1.27648 0.0678,-1.90821 0.36279,-0.95618 0.73264,-1.21598 1.54721,-1.71868 0.17892,-0.11042 0.3455,-0.36678 0.53805,-0.46359 1.62475,-0.81685 3.4871,1.14333 5.12678,-1.48466 0.33637,-0.5391 -0.1836,-1.85688 0,-2.44595 0.54801,-1.75825 1.93971,-3.46113 2.82661,-5.074 0.39485,-0.71807 0.0293,-1.6903 0.15288,-2.45612 0.29618,-1.83539 1.58734,-2.8619 3.18948,-3.38776 0.35225,-0.11562 0.65826,-0.4759 1.00591,-0.61659 0.29803,-0.1206 0.79856,-0.0688 1.10927,-0.0688 0.28855,0 0.61782,-0.0981 0.89911,-0.0504 0.93703,0.15891 2.08446,2.28362 2.50226,2.90832 0.76117,1.13809 -0.3776,4.12895 -0.85971,5.24295 -0.3493,0.80713 -0.16163,3.32501 0.0841,4.20279 0.40849,1.45901 -0.55947,3.10745 -0.12841,4.53176 0.46506,1.53668 2.58394,2.4562 2.99204,3.46102 0.20563,0.50634 -0.16387,0.81035 0.4449,1.23192 0.49059,0.33973 0.99061,0.3012 1.54535,0.45011 1.35919,0.36485 1.25482,1.57909 1.38097,2.68627 0.16388,1.43829 -1.24353,3.98224 -2.24946,4.98378 -0.68649,0.68348 -1.50787,0.82588 -2.27256,1.28383 -1.23902,0.74203 -0.21574,0.41921 -0.65132,1.2352 -0.0501,0.0938 -0.21137,0.18821 -0.12808,0.33683 0.40151,0.7164 1.52568,1.14792 2.18108,1.57894 0.33114,0.21778 0.60804,0.74096 0.80656,1.04992 0.40381,0.62843 1.17417,1.01997 1.62094,1.62092 0.49591,0.66705 0.69628,1.45382 1.05956,2.14851 0.34725,0.66401 0.85385,1.31282 1.1268,2.04599 0.0937,0.25158 0.14965,0.47419 0.14965,0.73715 0,0.0418 -0.0258,0.35475 0,0.36821 1.17629,0.61341 2.88677,-0.79013 3.94934,-1.07993 0.92392,-0.25198 5.37546,-0.35692 6.49145,-0.23453 1.06337,0.11662 2.88037,0.54062 3.51479,1.58551 0.28441,0.46842 0.041,0.84616 0.22,1.34421 0.16026,0.44583 0.6049,1.27452 0.90564,1.6434 0.18021,0.22103 0.55548,0.43226 0.68778,0.68779 0.44123,0.85217 -0.41684,3.14973 0,4.05478 0.53021,1.1512 1.03155,2.53726 0.29421,3.83649 -0.20357,0.35869 -0.31898,0.72238 -0.52837,1.06654 -0.20544,0.33766 -0.62725,0.54784 -0.86541,0.86539 -0.31677,0.42236 -0.4403,0.94887 -0.77117,1.38985 -0.3289,0.43835 -0.85022,0.77966 -1.1421,1.24945 -0.036,0.0579 0.0376,0.18639 0,0.24291 -0.47868,0.71948 -1.32158,1.19781 -1.83227,1.89286 -0.50829,0.69179 0.012,4.90785 -0.10641,5.85146 -0.14629,1.1661 -0.66297,2.31822 -0.83489,3.50559 -0.2587,1.78677 0.2808,3.76734 -0.0772,5.52903 -0.21763,1.07086 -0.98007,2.0056 -1.44624,2.94961 -0.31156,0.63091 -0.40302,1.39881 -0.73532,2.00189 -0.0771,0.13993 0.0426,0.40655 -0.0526,0.55871 -0.76046,1.21538 -1.96335,0.0513 -2.61389,1.03687 -0.18906,0.28642 0.15332,0.91537 0,1.22627 -0.13069,0.265 -0.37444,0.42008 -0.50229,0.66164 -0.0531,0.10039 0.0429,0.27241 0,0.37847 -0.0663,0.16402 -0.885,1.43838 -0.9989,1.58092 -0.27435,0.34329 -0.66347,0.59483 -0.938,0.93799 -0.20618,0.25773 -0.28292,0.59506 -0.56809,0.7894 -0.42714,0.29109 -0.92491,0.56913 -1.38238,0.82406 -0.58809,0.32771 -0.9497,-0.27553 -1.39047,-0.46256 -0.85751,-0.36385 -2.25277,0.30614 -2.9467,-0.98559 -0.11311,-0.21054 0.11859,-0.6134 0,-0.82023 -0.4215,-0.73511 -1.32087,-1.23877 -2.06323,-1.47052 -1.13862,-0.35544 -3.99278,0.0708 -4.62772,1.14577 -0.23058,0.3904 -0.90787,2.39794 -0.95091,2.44818 -0.10578,0.12345 -2.68602,0.0227 -3.04705,-0.0621 -0.35948,-0.0844 -0.56784,-0.4009 -0.85119,-0.59626 -1.14571,-0.78991 -1.0321,-1.42647 -1.0321,-2.78382 0,-0.1834 0.0677,-0.55349 0,-0.72193 -0.12442,-0.30934 -0.44612,-0.439 -0.62267,-0.70051 -0.54464,-0.80668 -0.94431,-1.14766 -2.10405,-0.97479 -0.81159,0.12097 -2.09122,1.99282 -2.40179,2.76594 -0.0417,0.10374 -1.70944,5.3e-4 -1.87534,-0.0595 -0.8857,-0.32113 -3.51238,0.29428 -4.18023,0.67682 -1.70144,0.97455 -0.64375,1.79786 -1.06844,3.03033 -0.0409,0.11855 -0.17933,0.1828 -0.23049,0.29728 -0.1195,0.2674 0.0828,0.67783 0,0.96173 -0.13046,0.44715 -0.47488,0.70025 -0.61845,1.12411 -0.0725,0.21393 -0.055,0.65541 -0.15324,0.83359 -0.16637,0.30171 -0.57059,0.49177 -0.77204,0.77203 -0.16178,0.22507 -0.19526,0.5943 -0.40708,0.77484 -1.10065,0.93815 -2.92563,2.47071 -4.21694,3.12348 -0.43164,0.21821 -0.90933,0.4986 -1.35044,0.67842 -0.12273,0.05 -0.38372,-0.007 -0.47993,0.0538 -0.27874,0.17733 -0.64557,0.42861 -0.96494,0.52644 -0.43683,0.1338 -1.05502,-0.0563 -1.50583,0 -2.873,0.35912 -7.39814,-0.28452 -9.86851,-1.67806 -1.05437,-0.59478 -1.76046,-1.57406 -2.69578,-2.3118 -0.77294,-0.60966 -1.55247,-0.77157 -2.52306,-0.89491 -0.35927,-0.0457 -0.8507,0.11857 -1.19256,0 -1.46184,-0.50703 -3.31197,-2.00966 -4.03392,-3.4201 -0.5354,-1.04601 -0.67477,-2.86468 -0.51978,-4.08306 0.0226,-0.17774 0.23949,-0.66819 0.15374,-0.84393 -0.10821,-0.22176 -0.58084,-0.26923 -0.73776,-0.52074 -0.0638,-0.10222 0.0698,-0.34443 0,-0.44222 -0.13025,-0.18257 -0.2881,-0.35582 -0.37192,-0.56693 -0.15253,-0.38417 0.19721,-1.03234 0,-1.3906 -0.11542,-0.2097 -0.37413,-1.26704 -0.24169,-1.52127 0.42899,-0.82352 4.20179,-2.11647 5.16775,-2.2293 0.55274,-0.0646 0.91517,0.0471 1.42396,-0.20783 0.3902,-0.19548 0.63378,-0.73415 0.98981,-0.98979 1.60402,-1.15175 2.44479,-3.33397 4.12867,-4.20746 0.29967,-0.15545 0.77349,-0.18414 1.10225,-0.29621 0.28359,-0.0967 6.10218,-0.4792 6.30164,-0.37302 0.4777,0.2543 2.07534,1.58934 2.391,1.58934 0.24846,0 0.79151,0.12295 1.07254,0.19904 0.44835,0.12139 1.18473,-1.80416 1.40179,-2.13437 0.2813,-0.42792 0.82267,-0.71401 0.6831,-1.31768 -0.21925,-0.94832 -1.964,-0.62767 -2.64944,-0.62767 -0.76232,0 -5.59014,-0.31036 -6.16694,2.5e-4 -1.1509,0.61979 -4.48471,1.65969 -5.8296,0.93201 -0.27514,-0.14887 -0.3985,-0.2845 -0.69527,-0.4305 -0.19864,-0.0977 -0.50214,-0.37323 -0.72781,-0.42982 -0.41082,-0.10302 -0.6765,0.0719 -1.08951,-0.15342 -0.7142,-0.38961 -1.93996,-1.37201 -2.34211,-2.08926 -0.23314,-0.41579 0.0422,-1.43129 0,-1.92535 -0.0587,-0.68696 -0.13649,-1.31988 0,-2.008 0.19912,-1.00392 1.13216,-3.36574 0.76055,-4.42355 -0.21707,-0.61791 -1.1183,1.01088 -1.1735,1.13244 -0.27633,0.60852 -0.63101,1.34215 -0.99886,1.83052 -0.23265,0.30887 -0.0418,2.27109 -0.28206,2.77795 -0.46864,0.9888 -0.98406,2.37495 -1.2077,3.49135 -0.0787,0.39293 -0.0953,0.89333 -0.31923,1.21379 -0.54098,0.77406 -1.03018,1.49262 -1.68059,2.14306 -0.20758,0.20759 -0.22097,0.5237 -0.26186,0.77039 -0.0378,0.22777 -0.45509,0.60817 -0.58648,0.7879 -0.55651,0.7612 -1.38708,0.76412 -2.26811,0.76412 -0.62496,0 -2.28282,0.28921 -2.878838,-0.0616 -1.690698,-0.99508 -1.993736,-3.48628 -3.23414,-4.94075 -0.812771,-0.95304 -1.969143,-1.2751 -3.0471,-1.81633 -0.735735,-0.3694 -1.667121,-0.20656 -2.428002,-0.38595 -0.816851,-0.19259 -1.596885,-0.68561 -2.372828,-0.99977 -0.123664,-0.0501 -0.318739,0.0578 -0.438042,0 -0.886079,-0.42962 -1.315889,-1.60741 -2.057276,-2.20052 -0.418314,-0.33465 -0.939358,-0.51953 -1.358415,-0.84904 -1.338472,-1.05247 -3.126201,-2.64237 -3.674769,-4.28803 -0.142494,-0.42747 0.05743,-1.02903 0,-1.48193 -0.157173,-1.23948 0.118033,-2.27646 0.857067,-3.31161 0.285517,-0.39992 0.793155,-0.68744 1.039085,-1.11394 0.328803,-0.57021 -0.230412,-2.35109 0,-3.07678 0.410588,-1.29316 1.894353,-2.16908 2.123612,-2.74678 0.477494,-1.20323 -0.717132,-3.93383 -0.260027,-5.45868 0.185417,-0.61853 2.676189,-2.64316 3.264416,-3.01793 0.203327,-0.12954 1.559565,-1.61404 1.704485,-1.86246 0.07925,-0.13586 -0.08459,-0.41835 0,-0.55025 0.02233,-0.0348 0.192344,0.0295 0.2246,0 0.102788,-0.0941 0.196569,-0.19829 0.283694,-0.30705 0.04746,-0.0592 0.07882,-0.12976 0.118229,-0.19463 0.377537,-0.36123 0.755076,-0.72246 1.132612,-1.08368 z"
         id="path3" /></g></g></svg>
