<?xml version="1.0" encoding="UTF-8" standalone="no"?>
<!-- Created with Inkscape (http://www.inkscape.org/) -->

<svg
   width="159.02663mm"
   height="152.25104mm"
   viewBox="0 0 159.02663 152.25104"
   version="1.1"
   id="svg1"
   inkscape:version="1.3 (0e150ed6c4, 2023-07-21)"
   sodipodi:docname="island-mantrasphere.svg"
   xmlns:inkscape="http://www.inkscape.org/namespaces/inkscape"
   xmlns:sodipodi="http://sodipodi.sourceforge.net/DTD/sodipodi-0.dtd"
   xmlns="http://www.w3.org/2000/svg"
   xmlns:svg="http://www.w3.org/2000/svg">
  <sodipodi:namedview
     id="namedview1"
     pagecolor="#ffffff"
     bordercolor="#000000"
     borderopacity="0.25"
     inkscape:showpageshadow="2"
     inkscape:pageopacity="0.0"
     inkscape:pagecheckerboard="0"
     inkscape:deskcolor="#d1d1d1"
     inkscape:document-units="mm"
     inkscape:zoom="1.1414881"
     inkscape:cx="377.13928"
     inkscape:cy="262.81483"
     inkscape:window-width="1902"
     inkscape:window-height="1014"
     inkscape:window-x="9"
     inkscape:window-y="33"
     inkscape:window-maximized="1"
     inkscape:current-layer="layer1" />
  <defs
     id="defs1" />
  <g
     inkscape:label="Layer 1"
     inkscape:groupmode="layer"
     id="layer1"
     transform="translate(-5.3843203,-21.368543)">
    <g
       id="g2"
       style="fill:none;stroke:#110000;stroke-width:4;stroke-dasharray:none;stroke-opacity:1">
      <path
         style="fill:none;stroke:#110000;stroke-width:4;stroke-dasharray:none;stroke-opacity:1"
         d="m 23.377767,167.57189 c -1.988567,-0.21584 -2.319685,-1.34718 -2.319685,-3.16355 0,-0.67885 -0.163102,-1.36429 -0.07867,-2.04548 0.184912,-1.49187 0.789268,-3.13184 1.624554,-4.38876 0.371486,-0.559 1.234114,-0.99831 1.3673,-1.66275 0.08038,-0.40101 -0.503588,-0.82514 -0.716719,-1.09334 -0.817886,-1.02921 -2.011935,-1.67139 -3.130497,-2.30171 -1.389169,-0.78281 -3.961296,-0.43538 -4.563399,-2.70784 -0.27528,-1.03896 0.171054,-3.68746 -0.153978,-4.44543 -0.191949,-0.44763 -0.461013,-0.84182 -0.618573,-1.31017 -0.104836,-0.31162 -0.156102,-2.54797 -0.07867,-2.8964 0.231618,-1.04228 0.733167,-1.60058 1.071581,-2.50997 0.200614,-0.53909 0.587202,-1.08157 0.748905,-1.62717 0.144074,-0.48613 0.212158,-1.06227 0.456516,-1.52384 0.315221,-0.59542 0.760668,-1.17218 1.088544,-1.78339 0.346028,-0.64504 -0.162854,-2.81097 0,-3.69809 0.154056,-0.8392 0.617578,-1.56471 0.771689,-2.38912 0.237699,-1.27157 -1.075928,-2.37026 -1.759787,-3.2811 -0.799281,-1.06457 -0.575839,-2.69133 -0.302326,-3.9274 0.09859,-0.44555 0.482251,-0.81522 0.756197,-1.14585 1.558848,-1.88145 1.385773,-3.45842 4.496701,-3.45842 0.360727,0 0.82021,-0.13625 1.14903,-0.0787 1.10857,0.19411 1.835344,1.66221 2.72542,1.98488 0.552531,0.2003 1.374655,-0.19466 1.910307,0.0609 0.808426,0.38577 2.168983,1.80249 2.568321,2.57276 0.182554,0.35213 -0.08894,0.96538 0,1.36422 0.436462,1.95725 -0.441481,7.60088 0.235834,9.04076 0.227785,0.48424 0.671935,0.90147 1.046231,1.27567 0.113667,0.11364 -0.354047,0.001 -0.468522,0.11398 -0.196204,0.19339 -0.298058,0.41038 -0.370578,0.67339 -0.05515,0.20001 -0.863465,2.26677 -0.894395,2.28841 -0.309123,0.2163 -1.78807,1.14253 -1.907704,1.48696 -0.238918,0.68785 0,1.99858 0,2.75892 0,0.69381 -0.214982,2.08784 -0.153072,2.60757 0.11842,0.99418 1.613043,1.74991 1.992006,2.63542 0.824484,1.92654 -0.623835,4.14896 1.002903,6.26815 0.225277,0.29348 3.255391,2.46512 3.685635,2.70549 0.780161,0.43586 1.802921,0.85607 2.321494,1.70743 0.227296,0.37315 -0.195919,1.13252 0,1.52599 0.168018,0.33743 0.369922,0.48882 0.452641,0.88257 0.09693,0.4614 0.189513,7.62545 0.06745,7.96142 -0.109466,0.30129 -1.160381,1.73112 -1.364634,1.93539 -0.321995,0.322 -0.790043,0.60013 -1.264917,0.6666 -0.453424,0.0635 -4.025172,0.16465 -4.37556,0.0765 -0.500848,-0.12604 -1.110919,-0.2803 -1.64402,-0.0732 -0.77982,0.30291 -2.041771,2.3843 -2.888261,2.88826 -0.149005,0.0887 -0.640725,0 -0.802756,0 -0.09555,0 -0.303813,0.12648 -0.396702,0.0567 -0.280985,-0.21112 0.11641,-1.6898 0,-2.0675 -0.212045,-0.68799 -0.784892,-1.28714 -1.285827,-1.95916 z"
         id="path11" />
      <path
         style="fill:none;stroke:#110000;stroke-width:4;stroke-dasharray:none;stroke-opacity:1"
         d="m 23.87159,81.382768 c -0.710671,-1.826582 0.34203,-2.584383 1.27997,-3.924855 0.483874,-0.691539 0.922259,-1.296374 1.578942,-1.825411 0.26634,-0.214566 0.440182,-0.656121 0.747887,-0.811392 0.535593,-0.270262 1.483177,-1.099349 1.699257,-1.707393 0.154734,-0.435417 0,-1.305769 0,-1.758696 0,-3.660543 -1.143777,-3.735208 -3.107238,-6.215965 -0.79154,-1.00008 -0.876337,-1.505511 -2.082931,-2.226157 -0.02898,-0.0173 -4.127104,-0.193545 -4.385858,-0.151206 -0.429781,0.07032 -0.768483,0.327395 -1.184872,0.407384 -0.05783,0.01111 -1.290312,0.06359 -1.324873,0 -0.229876,-0.422979 0.157164,-1.203476 0,-1.663467 -0.09642,-0.282202 -0.324846,-0.580459 -0.228167,-0.916964 0.11497,-0.400174 0.383002,-0.75565 0.622386,-1.090822 0.09833,-0.137681 0.725132,-0.808161 0.531999,-1.03946 -0.06294,-0.07538 -0.989642,0 -1.102238,0 -1.423757,0 -4.806491,0.523946 -5.811636,-0.829241 C 10.831715,57.262265 10.435,56.769989 10.257344,56.337334 10.059409,55.855293 10.435637,55.181923 10.191255,54.692266 9.6929312,53.6938 8.0746805,53.482491 7.7295255,52.747822 7.5186433,52.298957 7.6958925,51.660448 7.6567167,51.190342 7.57244,50.17902 7.5869355,51.488591 7.4206985,50.324943 c -0.1587243,-1.111065 0.364608,-2.187184 0.7042346,-3.207735 0.3461475,-1.040145 0.5970162,-2.321462 1.3122823,-3.200151 0.7754026,-0.952569 1.6399426,-1.737844 2.3417966,-2.723962 1.282535,-1.801987 0.772191,-4.407215 0.772191,-6.525363 0,-0.39447 -0.122178,-1.022625 0,-1.379588 0.255553,-0.746646 1.795996,-2.853526 1.795996,-3.358729 0,-1.324086 -1.037952,-3.675149 0.481275,-4.675535 0.528943,-0.348301 2.006547,-0.535745 2.659097,-0.859713 0.496817,-0.246652 1.008534,-0.59198 1.569585,-0.704185 1.167275,-0.233445 4.088656,0.34927 5.069084,0 0.665442,-0.237058 1.262165,-0.321439 1.986871,-0.321439 0.934256,0 1.445317,0.661133 2.294114,0.888339 0.856048,0.229148 1.841756,-0.06815 2.70243,0.145391 0.747691,0.185509 1.399537,-0.579106 2.063951,-0.678861 2.545728,-0.382216 3.443018,0.704706 3.443018,3.208808 0,0.640707 -0.222515,1.90178 0,2.539709 0.290639,0.833237 1.539375,1.11184 1.057002,2.487756 -0.254685,0.726463 -1.145233,1.799298 -1.5132,2.625439 -0.561363,1.260335 -1.301424,2.413256 -0.146658,3.568022 0.202438,0.202438 0.483965,0.578909 0.752335,0.691325 0.986811,0.413366 1.236482,-0.03687 1.891485,1.056174 0.09952,0.16609 0,0.730028 0,0.916218 0,0.172093 0.34903,1.884892 0.445799,2.004322 0.59817,0.738256 1.377246,1.377246 2.050357,2.050357 0.473522,0.473522 2.080429,2.407594 2.748295,1.97186 1.705042,-1.112414 0.484839,-2.520101 0.970167,-3.369416 0.842692,-1.474692 2.318125,-2.452304 3.184249,-3.865578 0.319831,-0.521875 -0.222615,-3.199001 0.07232,-4.253207 0.248428,-0.887968 1.287827,-1.717979 1.76241,-2.524275 0.498663,-0.847201 0.691219,-2.396705 1.684049,-2.880792 0.422439,-0.205972 1.315406,0.07914 1.681893,-0.18407 1.533234,-1.101162 2.10716,-1.978692 4.147259,-1.978692 0.411284,0 0.753952,-0.110672 1.174673,0.0085 0.41401,0.1173 1.96487,0.923655 2.16925,1.318471 0.227084,0.438682 -0.250311,1.269312 0,1.691966 0.272161,0.459547 0.640681,0.911145 0.812544,1.427001 0.03974,0.119277 -0.0086,0.297175 0.06763,0.413552 0.55872,0.853408 2.596139,2.438754 2.851401,3.04352 0.217151,0.514477 -0.307853,1.537481 0,1.990873 0.227626,0.335246 0.549452,0.603192 0.788241,0.927947 1.09424,1.488175 2.551727,0.765254 3.654692,1.187659 1.179042,0.451538 4.346218,3.479099 5.006293,4.557181 0.08094,0.132188 -0.0085,0.683474 0,0.802274 0.07877,1.104482 -0.423056,5.033 0.599389,5.721546 0.211434,0.142388 0.472303,0.111033 0.714547,0.173382 0.641501,0.165108 1.275446,0.358298 1.913525,0.536164 2.510505,0.699815 4.871194,1.625979 7.316534,2.517521 1.543002,0.56256 3.33358,0.992048 4.611132,2.085237 1.165473,0.997286 1.407207,2.264699 1.719326,3.70186 0.169481,0.780396 0.134979,-0.05757 0.230542,0.534305 0.08773,0.543374 0.259201,6.582788 0.0095,7.069465 -0.728266,1.419535 -0.549442,2.811904 -0.707859,4.392261 -0.03699,0.36903 -0.267652,0.72609 -0.381394,1.073284 -0.222657,0.67967 -0.05635,2.093815 0.07867,2.767275 0.38863,1.938406 3.344714,2.24691 4.658638,3.243336 1.001384,0.75941 1.797785,1.992469 2.23526,3.096742 0.339477,0.856906 -0.008,2.162834 0.07646,3.07835 0.02897,0.314164 0.325104,1.841201 0.44817,2.181204 0.210727,0.582187 0.510696,1.325179 0.914193,1.794888 0.714246,0.831448 2.232927,1.557878 2.414507,2.64246 0.0765,0.456782 0,0.979697 0,1.446525 0,0.412591 0.10061,0.952595 0,1.349743 -0.2805,1.107278 -1.409,1.900322 -1.93991,2.935777 -0.387924,0.756584 0.176527,2.085379 -0.05328,2.896609 -0.118477,0.41824 -0.29523,0.63673 -0.226824,1.09979 0.186888,1.26509 0.914556,1.47819 1.237429,2.25649 0.356015,0.85817 0.769725,1.80286 0.921215,2.7084 0.29225,1.7469 -1.14433,5.40193 -1.63695,7.12608 -0.38432,1.3451 -0.874934,2.71899 -1.177615,4.08105 -0.121883,0.54848 -0.04213,1.0799 -0.236019,1.55585 -0.150352,0.36909 -0.08611,4.544 0.232667,5.14221 0.91037,1.70841 3.039527,3.19354 1.099973,5.09649 -0.376941,0.36983 -0.986242,0.4178 -1.436253,0.66812 -0.947352,0.52697 -1.951321,1.19277 -3.015409,1.47377 -0.70009,0.18488 -2.813653,0.11586 -3.575158,0 -0.280221,-0.0426 -0.514977,-0.30015 -0.782413,-0.39024 -0.379965,-0.12799 -0.916562,0.15102 -1.286491,0 -0.775163,-0.31643 -2.08665,-0.99101 -2.319367,-1.89093 -0.115745,-0.44757 0,-1.08294 0,-1.54537 0,-1.06445 -0.315931,-2.38692 0,-3.43332 0.251976,-0.83457 0.500351,-1.60737 0.62938,-2.47716 0.118552,-0.79917 0,-1.7092 0,-2.51944 0,-0.67077 0.162992,-1.28513 -0.07958,-1.93568 -0.870262,-2.33398 -3.749241,-3.06755 -5.021019,-5.17757 -0.439592,-0.72933 0.182795,-2.35188 -0.422211,-3.26908 -0.99286,-1.5052 -2.938526,-2.51299 -3.637095,-4.10401 -0.34657,-0.78933 0.419243,-2.2243 0,-2.97662 -0.396878,-0.71219 -2.065668,-2.313384 -2.803313,-2.571004 -0.588839,-0.205647 -1.249667,-0.03427 -1.811198,0.153316 -2.225087,0.743318 -1.880698,1.236818 -3.018353,2.713738 -0.08976,0.11653 0.01672,0.4492 -0.07289,0.57272 -0.213104,0.29379 -0.542124,0.52001 -0.75256,0.81556 -0.05468,0.0768 0.02214,0.19117 0,0.2828 -0.03002,0.12425 -0.907524,0.99061 -1.012899,1.06192 -0.482322,0.32638 -0.878414,0.76738 -1.373582,1.07874 -1.760236,1.10682 -4.605668,2.16257 -6.644428,2.63168 -1.619949,0.37274 -3.029649,-0.14313 -3.78506,-1.62318 -0.336085,-0.65849 0.337687,-1.83554 0,-2.49321 -0.26056,-0.50746 -1.230853,-1.06199 -1.692249,-1.3427 -0.947719,-0.57659 -2.545786,-0.15776 -3.606281,-0.23363 -2.069809,-0.14806 -4.159666,-0.0767 -6.236153,-0.0767 -1.129286,0 -2.383311,0.12112 -3.466613,-0.15734 -0.883864,-0.2272 -1.639017,-1.17896 -2.254734,-1.79469 -1.175792,-1.175809 -2.747338,-3.159483 -3.171886,-4.760514 -0.196323,-0.740367 0.06576,-1.530651 -0.157345,-2.308897 -0.424902,-1.482153 -1.304486,-2.625426 -2.266138,-3.826512 -0.604017,-0.754404 -1.82604,-0.909209 -2.602629,-1.371614 -0.777851,-0.463158 -1.597779,-0.928534 -2.368711,-1.40608 -0.733582,-0.454409 -2.393191,-1.735836 -2.929578,-2.373096 -0.16743,-0.198919 0.125211,-0.316237 -0.149374,-0.542956 -0.718287,-0.593077 -1.836554,0.303723 -2.231222,-0.207598 -0.295884,-0.383339 0.184692,-2.517695 0.223428,-2.721075 z"
         id="path1" />
      <path
         style="fill:none;stroke:#110000;stroke-width:4;stroke-dasharray:none;stroke-opacity:1"
         d="m 104.20577,122.64051 c -0.32469,-0.28332 -0.69075,-1.17466 -0.97408,-0.84997 -0.28332,0.3247 1.27964,1.15383 0.97408,0.84997 -0.44474,-0.44228 -1.76451,-1.3503 -2.28003,-2.0618 -0.0879,-0.12134 0.0523,-0.51684 0,-0.64687 -0.37265,-0.92567 -0.38867,-1.88138 -0.38867,-2.93405 0,-0.81712 -0.15526,-1.57719 0.0748,-2.38109 0.77887,-2.72114 2.96551,-4.98198 2.59608,-7.93525 -0.18673,-1.4928 -1.13035,-2.89159 -2.00624,-4.06493 -0.35317,-0.47311 -1.09969,-1.02173 -1.22366,-1.61919 -0.11615,-0.5597 -0.16268,-2.486281 -0.0787,-3.010661 0.0856,-0.534469 0.12091,-1.457317 0.32566,-1.851179 0.51011,-0.981284 1.30413,-1.732634 1.65521,-2.75967 0.15256,-0.446294 0,-1.280282 0,-1.726427 0,-0.310497 0.10473,-0.785937 0,-1.067493 -0.23721,-0.637686 -0.91,-1.028732 -1.33304,-1.539473 -0.94297,-1.138476 -2.076198,-2.117532 -2.557377,-3.528034 -0.179864,-0.527238 0,-1.447773 0,-2.00633 0,-0.673777 0.120565,-1.46104 0,-2.124149 -0.1568,-0.862396 -0.241954,-0.06416 -0.157345,-1.101418 0.03423,-0.419722 0.207063,-0.834678 0.309994,-1.237755 0.110111,-0.431202 0,-1.052701 0,-1.491504 0,-1.927032 0.151746,-2.794923 -0.950992,-4.389213 -0.197326,-0.285287 -0.259779,-2.824921 -0.186447,-3.116823 0.01037,-0.0413 0.253675,-0.486947 0.244182,-0.5041 -0.294434,-0.532135 -0.697058,-0.706546 -0.792724,-1.419752 -0.08832,-0.658418 -0.143303,-1.535713 -0.07867,-2.186836 0.08512,-0.857597 0.956138,-3.640627 1.806586,-4.018616 0.655489,-0.291338 3.198343,0.195609 3.638883,0.438875 0.24811,0.137004 4.76354,0.124288 4.98625,0.0763 0.9496,-0.204629 1.58331,-0.702083 2.43837,-1.101064 0.26805,-0.125073 0.57744,-0.05021 0.85425,-0.152542 0.54952,-0.203145 1.00688,-0.557189 1.53261,-0.762924 1.16918,-0.457539 3.11225,0.333148 4.2262,-0.07456 1.7734,-0.649068 4.16889,-2.280211 6.20418,-1.715982 1.03884,0.287991 1.74451,1.023504 2.63099,1.624851 0.6659,0.451718 1.39573,0.706983 2.0972,1.073627 0.46271,0.241853 0.79189,0.711406 1.182,1.046355 0.59891,0.514231 1.57612,0.828707 1.92995,1.600801 0.0706,0.153987 0.0235,0.560065 0.0787,0.720624 0.0863,0.251225 0.46433,0.482132 0.60017,0.735529 0.33409,0.623239 -0.17712,2.474632 0.002,3.261952 0.10676,0.470406 0.472,0.753383 0.58334,1.17084 0.11356,0.425773 -0.0681,0.918384 0.0787,1.339572 0.29046,0.833676 0.8479,1.59335 1.14801,2.412312 0.0308,0.0841 -0.0408,0.225243 0,0.304752 0.28874,0.563187 0.58253,1.111655 0.86881,1.682425 0.13162,0.262398 0.44228,0.473303 0.62118,0.695738 0.91777,1.141148 1.98613,2.480217 2.14954,4.022749 0.1704,1.608452 -0.1196,3.712268 -1.14128,5.03293 -0.43737,0.565351 -1.54642,1.347883 -1.21959,2.249988 0.55413,1.5295 2.43862,2.262256 3.44834,3.45826 0.0902,0.106836 0,0.584456 0,0.719939 0,1.103667 0.23007,2.703383 0.0762,3.737623 -0.18188,1.222597 0.12932,3.348096 -0.15403,4.348192 -0.2087,0.736591 -1.27686,1.240291 -1.2026,1.367831 0.57879,0.9941 3.12661,1.50303 3.45121,2.32097 1.14487,2.88489 2.74474,5.25376 3.42181,8.32731 0.16754,0.76056 0.17997,2.48855 -0.15605,3.16056 -0.32425,0.64849 -1.04944,1.35649 -1.55843,1.86547 -1.43254,1.43254 -1.63697,1.74874 -3.50251,2.68151 -0.4327,0.21635 -0.84156,0.63029 -1.32073,0.73561 -0.55189,0.1213 -1.29137,0 -1.86192,0 -0.78149,0 -5.36769,-0.0918 -5.8057,0.0787 -1.33324,0.51906 -2.50629,1.09137 -3.40286,2.26901 -0.50338,0.66118 -0.0607,1.71872 -0.66884,2.22817 -0.045,0.0377 0.0423,0.21803 0,0.25984 -0.35282,0.34903 -2.15589,1.84832 -1.74322,2.44992 0.072,0.10492 1.3175,0 1.38787,0 0.42771,0 0.48851,0.19675 1.00642,0.15734 1.76812,-0.13454 2.8643,-1.57839 4.44745,-2.10635 1.66663,-0.5558 4.62475,-0.54229 6.32093,-0.0678 2.31362,0.64724 4.426,2.05545 6.88602,1.56303 1.09078,-0.21834 1.76756,-3.15327 2.38933,-4.01035 0.33002,-0.45493 1.00992,-0.79313 1.55404,-0.86187 0.83448,-0.10541 4.98899,-0.21173 5.79132,0.22508 0.68566,0.37329 1.54648,1.60891 1.73545,2.3222 0.19255,0.72679 -0.18196,1.59276 0.62549,2.07574 0.344,0.20576 0.81071,0.12776 1.19503,0.12776 1.85233,0 3.53319,0.077 4.67328,1.78183 1.22865,1.83724 0.46981,4.71958 0.46981,6.80125 0,2.46175 0.34802,4.91888 0.0744,7.38152 -0.12256,1.10309 -0.86766,1.95474 -1.41609,2.8322 -0.11461,0.18338 -0.0534,0.43973 -0.15734,0.62939 -0.17716,0.3234 -0.67761,0.6776 -0.93192,0.93192 -1.90851,1.90851 -3.25662,1.77591 -5.78219,1.77591 -2.18512,0 -4.37024,0 -6.55537,0 -0.94587,0 -2.66188,0.28184 -3.50345,-0.22218 -2.08347,-1.24781 -2.77479,-3.95976 -4.52007,-4.9998 -0.13995,-0.0834 -0.48305,-0.0667 -0.65793,-0.13005 -0.92965,-0.33664 -2.11966,1.74607 -2.71187,2.21368 -0.4389,0.34657 -0.99132,0.29075 -1.51272,0.36834 -0.34977,0.0521 -0.73481,0.17051 -1.07628,1.4e-4 -0.7811,-0.38971 -1.71497,-0.81402 -2.25085,-1.57763 -0.81916,-1.16727 -1.664,-2.8304 -3.19158,-3.25967 -0.45821,-0.12877 -1.1331,0 -1.6072,0 -0.61684,0 -1.27619,-0.0723 -1.87717,0.0787 -1.08164,0.27173 -2.19281,0.94924 -3.17573,1.48229 -0.33694,0.18272 -2.20544,0.11592 -2.49724,0.001 -0.56774,-0.22358 -1.14376,-0.83299 -1.47269,-1.32639 -0.68113,-1.02173 -0.68035,-2.15151 -1.01751,-3.2597 -0.0691,-0.22708 0.089,-0.54645 0,-0.7654 -0.2948,-0.72494 -1.11121,-1.01214 -1.39146,-1.71184 -0.15289,-0.38172 0.0533,-0.98287 0,-1.39585 -0.0981,-0.7596 -0.20283,-1.53377 0.15391,-2.24901 0.3427,-0.68711 1.50424,-1.56861 2.14542,-1.99753 0.22939,-0.15345 0.54069,-0.0922 0.7631,-0.22309 0.36726,-0.21607 0.56702,-0.66803 1.00151,-0.776 0.72576,-0.18035 1.65016,0.006 2.3597,-0.22995 0.55327,-0.18368 1.54036,-1.72712 1.07758,-2.39476 -0.0813,-0.11725 -0.18989,0.008 -0.27213,-0.0552 -0.28976,-0.22394 -0.51068,-0.54166 -0.80122,-0.75883 -0.11339,-0.0848 -0.41282,-0.15023 -0.56546,-0.22636 -0.63961,-0.31899 -1.16901,-0.88979 -1.75932,-1.28319 -0.69269,-0.46164 -1.39912,-0.81308 -2.25793,-0.92328 -0.99446,-0.1276 -2.00706,-0.54369 -2.99196,-0.74356 -0.412,-0.0836 -0.69303,-0.32462 -1.09698,-0.4717 -0.83542,-0.30418 -2.10701,0.0534 -3.0031,-0.0787 -1.82388,-0.26877 -3.81823,0.46836 -5.49263,0.38732 z"
         id="path2" />
    </g>
  </g>
</svg>
